<?xml version="1.0" encoding="iso-8859-1"?>
<!DOCTYPE svg PUBLIC "-//W3C//DTD SVG 1.1//EN" "http://www.w3.org/Graphics/SVG/1.1/DTD/svg11.dtd">
<svg version="1.1" id="gitbook" xmlns="http://www.w3.org/2000/svg" xmlns:xlink="http://www.w3.org/1999/xlink" x="0px" y="0px"
	 width="512px" height="512px" viewBox="0 0 512 512" style="enable-background:new 0 0 512 512;" xml:space="preserve">
<g id="Book_pages">
	<path style="fill:#4E4E4E;" d="M256,94.824C176.638,22.33,0,29.294,0,29.294v386.805c207.405,5.034,256.377,64.775,256.377,64.775
		C331.05,414.421,512,416.099,512,416.099V29.275C317.62,28.081,256,94.824,256,94.824z M225,392.268c0,0-86-40.078-161-39.076
		V94.687c0,0,115,7.014,161,42.082V392.268z M450,353.192c-74-1.002-161,39.076-161,39.076V136.769c46-35.068,161-42.082,161-42.082
		V353.192z"/>
</g>
<g id="branch_right">
	<path style="fill:#4E4E4E;" d="M394.667,244.167c2,86.167-84.167,106.083-84.167,106.083C298,354,283,360.359,283,360.359V314.73
		c0,0,35.783-12.851,43.083-16.729c0,0,26.795-11.167,26.461-54.667L394.667,244.167z"/>
	<path style="fill:#4E4E4E;stroke:#FF1010;stroke-miterlimit:10;" d="M355,341.5"/>
	<path style="fill:#4E4E4E;stroke:#FF1010;stroke-miterlimit:10;" d="M287.5,368"/>
	<path style="fill:#4E4E4E;" d="M373.833,166.333c-23.38,0-42.333,18.953-42.333,42.333s18.953,42.333,42.333,42.333
		s42.333-18.953,42.333-42.333C416.167,185.287,397.213,166.333,373.833,166.333z M374.25,229.833
		c-11.552,0-20.917-9.365-20.917-20.917s9.365-20.917,20.917-20.917s20.917,9.365,20.917,20.917
		C395.167,220.469,385.802,229.833,374.25,229.833z"/>
</g>
<g id="branch_left">
	<polygon style="fill:#4E4E4E;" points="123,368 123,224 165,224 165,373 	"/>
	<path style="fill:#4E4E4E;" d="M143.5,147.333c-23.288,0-42.167,18.655-42.167,41.667s18.879,41.667,42.167,41.667
		s42.167-18.655,42.167-41.667C185.667,165.988,166.788,147.333,143.5,147.333z M143.667,209.917
		c-11.782,0-21.333-9.551-21.333-21.333s9.551-21.333,21.333-21.333S165,176.802,165,188.584
		C165,200.365,155.449,209.917,143.667,209.917z"/>
</g>
</svg>
