<?xml version="1.0" encoding="iso-8859-1"?>
<!-- Generator: Adobe Illustrator 17.0.0, SVG Export Plug-In . SVG Version: 6.00 Build 0)  -->
<!DOCTYPE svg PUBLIC "-//W3C//DTD SVG 1.1//EN" "http://www.w3.org/Graphics/SVG/1.1/DTD/svg11.dtd">
<svg version="1.1" id="Layer_1" xmlns="http://www.w3.org/2000/svg" xmlns:xlink="http://www.w3.org/1999/xlink" x="0px" y="0px"
	 width="980px" height="512px" viewBox="0 0 980 512" style="enable-background:new 0 0 980 512;" xml:space="preserve">
<g id="logo">
	<g id="Book_pages_1_">
		<path style="fill:#4E4E4E;" d="M715.077,118.914c-67.427-61.592-217.5-55.675-217.5-55.675v328.633
			c176.213,4.277,217.82,55.033,217.82,55.033c63.443-56.459,217.18-55.033,217.18-55.033V63.223
			C767.429,62.208,715.077,118.914,715.077,118.914z M688.739,371.625c0,0-73.066-34.051-136.787-33.199V118.797
			c0,0,97.705,5.959,136.787,35.753V371.625z M879.901,338.426c-62.871-0.851-136.787,33.199-136.787,33.199V154.551
			c39.082-29.794,136.787-35.753,136.787-35.753V338.426z"/>
	</g>
	<g id="branch_right_1_">
		<path style="fill:#4E4E4E;" d="M832.889,245.797c1.699,73.208-71.509,90.129-71.509,90.129
			c-10.62,3.186-23.364,8.589-23.364,8.589v-38.767c0,0,30.402-10.918,36.604-14.213c0,0,22.765-9.488,22.482-46.446
			L832.889,245.797z"/>
		<path style="fill:#4E4E4E;stroke:#FF1010;stroke-miterlimit:10;" d="M799.188,328.492"/>
		<path style="fill:#4E4E4E;stroke:#FF1010;stroke-miterlimit:10;" d="M741.839,351.007"/>
		<path style="fill:#4E4E4E;" d="M815.189,179.668c-19.864,0-35.966,16.103-35.966,35.967s16.103,35.967,35.966,35.967
			s35.966-16.103,35.966-35.967C851.156,195.772,835.052,179.668,815.189,179.668z M815.543,233.619
			c-9.815,0-17.771-7.957-17.771-17.771c0-9.815,7.957-17.771,17.771-17.771c9.815,0,17.771,7.957,17.771,17.771
			C833.314,225.663,825.357,233.619,815.543,233.619z"/>
	</g>
	<g id="branch_left_1_">
		<polygon style="fill:#4E4E4E;" points="602.078,351.007 602.078,228.663 637.762,228.663 637.762,355.255 		"/>
		<path style="fill:#4E4E4E;" d="M619.495,163.526c-19.786,0-35.826,15.849-35.826,35.401s16.04,35.401,35.826,35.401
			c19.786,0,35.825-15.849,35.825-35.401S639.281,163.526,619.495,163.526z M619.637,216.698c-10.01,0-18.125-8.115-18.125-18.125
			s8.115-18.125,18.125-18.125c10.01,0,18.125,8.115,18.125,18.125C637.762,208.582,629.647,216.698,619.637,216.698z"/>
	</g>
</g>
<g id="text">
	<text transform="matrix(1 0 0 1 113.0352 215.7017)" style="fill:#4E4E4E; font-family:'ArialMT'; font-size:80;">Published</text>
	<text transform="matrix(1 0 0 1 15.3402 311.7017)" style="fill:#4E4E4E; font-family:'ArialMT'; font-size:80;">with GitBook</text>
</g>
</svg>
